<svg width="126" height="126" viewBox="0 0 126 126" fill="none" xmlns="http://www.w3.org/2000/svg">
<rect width="126" height="126" fill="#8B6149"/>
<path d="M72.5975 36.9485H31.3404C30.1242 36.9485 29.1689 37.9037 29.1689 39.1199V65.1771C29.1689 66.3711 30.1242 67.3485 31.3404 67.3485H72.5975C73.7918 67.3485 74.7689 66.3711 74.7689 65.1771V39.1199C74.7689 37.9037 73.792 36.9485 72.5975 36.9485V36.9485Z" fill="#F2EDDE"/>
<path d="M29.1475 78.2057C29.1475 79.3997 30.1246 80.3771 31.3189 80.3771H33.664C34.576 75.8386 38.3109 72.2777 42.9577 71.6914H31.3406C30.5587 71.6914 29.8425 71.5609 29.1475 71.3003V78.2057Z" fill="#F2EDDE"/>
<path d="M91.9885 80.3771H94.6811C95.8753 80.3771 96.8525 79.3997 96.8525 78.2057V59.184C96.8525 55.7746 88.5359 47.8057 83.9761 47.8057H79.1121V65.1771C79.1121 68.7597 76.1805 71.6914 72.5978 71.6914H45.7803C50.4273 72.2777 54.1622 75.8386 55.074 80.3771H70.578C71.5771 75.3828 75.9851 71.5828 81.2833 71.5828C86.5599 71.5826 90.9896 75.3826 91.9885 80.3771V80.3771ZM82.6728 53.1472C93.7908 52.6043 93.335 64.0912 93.335 64.0912H82.6728V53.1472Z" fill="#F2EDDE"/>
<path d="M81.275 89.0506C84.8967 89.0506 87.8327 86.1146 87.8327 82.4929C87.8327 78.8712 84.8967 75.9352 81.275 75.9352C77.6533 75.9352 74.7173 78.8712 74.7173 82.4929C74.7173 86.1146 77.6533 89.0506 81.275 89.0506Z" fill="#F2EDDE"/>
<path d="M44.3604 89.0506C47.9822 89.0506 50.9182 86.1146 50.9182 82.4929C50.9182 78.8712 47.9822 75.9352 44.3604 75.9352C40.7387 75.9352 37.8027 78.8712 37.8027 82.4929C37.8027 86.1146 40.7387 89.0506 44.3604 89.0506Z" fill="#F2EDDE"/>
</svg>
