<svg width="46" height="46" viewBox="0 0 46 46" fill="none" xmlns="http://www.w3.org/2000/svg">
<path d="M45.2188 22.7188C45.2188 18.2687 43.8992 13.9185 41.4268 10.2184C38.9545 6.51832 35.4405 3.63444 31.3291 1.93147C27.2178 0.228499 22.6938 -0.217076 18.3292 0.651091C13.9647 1.51926 9.95554 3.66218 6.80886 6.80886C3.66218 9.95554 1.51926 13.9647 0.651091 18.3292C-0.217076 22.6938 0.228499 27.2178 1.93147 31.3291C3.63444 35.4405 6.51832 38.9545 10.2184 41.4268C13.9185 43.8992 18.2687 45.2188 22.7188 45.2188C28.6844 45.2132 34.4042 42.8409 38.6226 38.6226C42.8409 34.4042 45.2132 28.6844 45.2188 22.7188ZM25.2188 40.0313V28.5521H29.3854C30.0485 28.5521 30.6843 28.2887 31.1532 27.8199C31.622 27.351 31.8854 26.7151 31.8854 26.0521C31.8854 25.389 31.622 24.7532 31.1532 24.2843C30.6843 23.8155 30.0485 23.5521 29.3854 23.5521H25.2188V19.3854C25.2188 18.7224 25.4821 18.0865 25.951 17.6177C26.4198 17.1488 27.0557 16.8854 27.7188 16.8854H31.0521C31.7151 16.8854 32.351 16.622 32.8199 16.1532C33.2887 15.6844 33.5521 15.0485 33.5521 14.3854C33.5521 13.7224 33.2887 13.0865 32.8199 12.6177C32.351 12.1488 31.7151 11.8854 31.0521 11.8854H27.7188C25.7296 11.8854 23.822 12.6756 22.4155 14.0821C21.0089 15.4886 20.2188 17.3963 20.2188 19.3854V23.5521H16.0521C15.389 23.5521 14.7532 23.8155 14.2843 24.2843C13.8155 24.7532 13.5521 25.389 13.5521 26.0521C13.5521 26.7151 13.8155 27.351 14.2843 27.8199C14.7532 28.2887 15.389 28.5521 16.0521 28.5521H20.2188V40.0313C15.8398 39.3992 11.8627 37.132 9.08802 33.6859C6.31329 30.2397 4.94685 25.8705 5.26369 21.4575C5.58053 17.0445 7.55713 12.9153 10.7957 9.90096C14.0343 6.88658 18.2944 5.21075 22.7188 5.21075C27.1431 5.21075 31.4032 6.88658 34.6418 9.90096C37.8804 12.9153 39.857 17.0445 40.1738 21.4575C40.4907 25.8705 39.1242 30.2397 36.3495 33.6859C33.5748 37.132 29.5977 39.3992 25.2188 40.0313Z" fill="#8B6149"/>
</svg>
