<svg width="150" height="150" viewBox="0 0 150 150" fill="none" xmlns="http://www.w3.org/2000/svg">
<rect width="150" height="150" fill="#8B6149"/>
<path d="M80.99 49.86V99H69.02V69.53L58.03 99H48.37L37.31 69.46V99H25.34V49.86H39.48L53.27 83.88L66.92 49.86H80.99ZM107.378 99.49C103.784 99.49 100.564 98.9067 97.7178 97.74C94.8711 96.5733 92.5845 94.8467 90.8578 92.56C89.1778 90.2733 88.2911 87.52 88.1978 84.3H100.938C101.124 86.12 101.754 87.52 102.828 88.5C103.901 89.4333 105.301 89.9 107.028 89.9C108.801 89.9 110.201 89.5033 111.228 88.71C112.254 87.87 112.768 86.7267 112.768 85.28C112.768 84.0667 112.348 83.0633 111.508 82.27C110.714 81.4767 109.711 80.8233 108.498 80.31C107.331 79.7967 105.651 79.2133 103.458 78.56C100.284 77.58 97.6945 76.6 95.6878 75.62C93.6811 74.64 91.9545 73.1933 90.5078 71.28C89.0611 69.3667 88.3378 66.87 88.3378 63.79C88.3378 59.2167 89.9945 55.6467 93.3078 53.08C96.6211 50.4667 100.938 49.16 106.258 49.16C111.671 49.16 116.034 50.4667 119.348 53.08C122.661 55.6467 124.434 59.24 124.668 63.86H111.718C111.624 62.2733 111.041 61.0367 109.968 60.15C108.894 59.2167 107.518 58.75 105.838 58.75C104.391 58.75 103.224 59.1467 102.338 59.94C101.451 60.6867 101.008 61.7833 101.008 63.23C101.008 64.8167 101.754 66.0533 103.248 66.94C104.741 67.8267 107.074 68.7833 110.248 69.81C113.421 70.8833 115.988 71.91 117.948 72.89C119.954 73.87 121.681 75.2933 123.128 77.16C124.574 79.0267 125.298 81.43 125.298 84.37C125.298 87.17 124.574 89.7133 123.128 92C121.728 94.2867 119.674 96.1067 116.968 97.46C114.261 98.8133 111.064 99.49 107.378 99.49Z" fill="#F2EDDE"/>
</svg>
