<svg width="126" height="126" viewBox="0 0 126 126" fill="none" xmlns="http://www.w3.org/2000/svg">
<rect width="126" height="126" fill="#8B6149"/>
<g clip-path="url(#clip0_104_609)">
<path d="M71.143 89.4643C72.6421 89.4643 73.8573 88.2491 73.8573 86.7501C73.8573 85.251 72.6421 84.0358 71.143 84.0358C69.6439 84.0358 68.4287 85.251 68.4287 86.7501C68.4287 88.2491 69.6439 89.4643 71.143 89.4643Z" fill="#F2EDDE"/>
<path d="M74.2644 45.0342L74.7706 38.7343C74.8085 38.2976 74.6331 37.8694 74.2997 37.5848C70.6627 34.6248 66.4646 32.4311 61.9578 31.1357C61.5051 31.0152 61.0226 31.1462 60.693 31.479L56.5225 35.5315C62.861 36.4453 68.7324 39.3896 73.256 43.9227C73.6116 44.2783 73.9278 44.6637 74.2644 45.0342Z" fill="#F2EDDE"/>
<path d="M52.143 78.6072C58.8888 78.6072 64.3573 73.1386 64.3573 66.3929C64.3573 59.6471 58.8888 54.1786 52.143 54.1786C45.3972 54.1786 39.9287 59.6471 39.9287 66.3929C39.9287 73.1386 45.3972 78.6072 52.143 78.6072Z" fill="#F2EDDE"/>
<path d="M52.1429 37.8929C37.1594 37.9101 25.0172 50.0523 25 65.0358V73.4284C25.4346 73.2676 25.8938 73.1832 26.3571 73.1787H27.4008C28.8881 73.1788 30.257 73.9899 30.9714 75.2944C33.4695 79.8975 37.2339 83.6887 41.8191 86.2194C43.165 86.9136 44.0077 88.3042 44 89.8186V93.5358C43.9955 93.9992 43.911 94.4583 43.7503 94.8929H72.5C76.2458 94.8885 79.2812 91.853 79.2857 88.1072V65.0358C79.2857 50.0452 67.1334 37.8929 52.1429 37.8929V37.8929ZM52.1429 40.6072C52.8924 40.6072 53.5 41.2148 53.5 41.9644C53.5 42.7139 52.8924 43.3215 52.1429 43.3215C51.3933 43.3215 50.7857 42.7139 50.7857 41.9644C50.7857 41.2148 51.3933 40.6072 52.1429 40.6072ZM30.4286 65.0358C30.4286 65.7853 29.821 66.3929 29.0714 66.3929C28.3219 66.3929 27.7143 65.7853 27.7143 65.0358C27.7007 53.8214 35.335 44.0425 46.2176 41.3347C46.6924 41.2045 47.2005 41.3416 47.5453 41.6931C47.8901 42.0445 48.0175 42.5552 47.8782 43.0274C47.7389 43.4997 47.3548 43.8594 46.8744 43.9675C37.2017 46.3756 30.4166 55.0678 30.4286 65.0358V65.0358ZM52.1429 81.3215C43.898 81.3215 37.2143 74.6378 37.2143 66.3929C37.2143 58.1481 43.898 51.4644 52.1429 51.4644C60.3877 51.4644 67.0714 58.1481 67.0714 66.3929C67.0617 74.6337 60.3836 81.3118 52.1429 81.3215ZM76.5714 86.7501C76.5714 89.7482 74.141 92.1787 71.1429 92.1787C68.1447 92.1787 65.7143 89.7482 65.7143 86.7501C65.7143 83.752 68.1447 81.3215 71.1429 81.3215C74.141 81.3215 76.5714 83.752 76.5714 86.7501Z" fill="#F2EDDE"/>
<path d="M40.5759 88.6324C35.4932 85.8754 31.3274 81.6925 28.591 76.5987C28.353 76.1636 27.8967 75.8931 27.4008 75.8929H26.3571C25.6076 75.8929 25 76.5006 25 77.2501V89.4644C25 92.4625 27.4305 94.8929 30.4286 94.8929H39.9286C40.6781 94.8929 41.2857 94.2853 41.2857 93.5358V89.8186C41.2869 89.3223 41.0138 88.866 40.5759 88.6324V88.6324Z" fill="#F2EDDE"/>
<path d="M99.643 75.8929H96.9287V93.5358C96.9287 94.2853 97.5363 94.8929 98.2859 94.8929H99.643C100.393 94.8929 101 94.2853 101 93.5358V77.2501C101 76.5006 100.393 75.8929 99.643 75.8929Z" fill="#F2EDDE"/>
<path d="M88.7857 78.6072C88.7857 79.3568 88.1781 79.9644 87.4286 79.9644C86.679 79.9644 86.0714 79.3568 86.0714 78.6072V75.8929H82V86.7501H94.2143V75.8929H88.7857V78.6072Z" fill="#F2EDDE"/>
</g>
<defs>
<clipPath id="clip0_104_609">
<rect width="76" height="76" fill="white" transform="translate(25 25)"/>
</clipPath>
</defs>
</svg>
