<svg width="126" height="126" viewBox="0 0 126 126" fill="none" xmlns="http://www.w3.org/2000/svg">
<rect width="126" height="126" fill="#8B6149"/>
<g clip-path="url(#clip0_104_583)">
<path d="M53.1081 36.5574C52.6322 36.6137 52.1738 36.3839 51.913 35.9819C50.5008 33.8047 48.0489 32.3626 45.2667 32.3626H44.6856C40.2771 32.3626 36.7228 35.9338 36.7293 40.3283L36.7942 93.6376H38.0986C38.7734 93.6376 39.3624 94.1471 39.4056 94.8205C39.453 95.5583 38.8692 96.1709 38.1417 96.1709H26.3097C25.6349 96.1709 25.0459 95.6614 25.0027 94.988C24.9553 94.2502 25.5391 93.6376 26.2667 93.6376H34.2609L34.196 40.3315C34.1895 34.5317 38.8797 29.8292 44.6856 29.8292H45.2667C48.9573 29.8292 52.2077 31.7527 54.0676 34.6492C54.5383 35.3824 54.1403 36.4354 53.1081 36.5574V36.5574ZM54.45 39.0126C49.5607 39.0126 45.5833 42.9899 45.5833 47.8792V50.0959C45.5833 50.7957 46.1502 51.3626 46.85 51.3626H62.05C62.7498 51.3626 63.3167 50.7957 63.3167 50.0959V47.8792C63.3167 42.9899 59.3393 39.0126 54.45 39.0126ZM85.176 94.8672C85.1421 93.7577 85.1635 91.3824 85.1663 85.5635C85.1667 84.8637 84.5995 84.2959 83.8997 84.2959H58.8836C58.1838 84.2959 57.6167 84.8637 57.617 85.5635C57.62 91.3831 57.6414 93.7581 57.6075 94.8673C57.5856 95.5814 58.1591 96.1711 58.8735 96.1711H83.91C84.6244 96.1709 85.1977 95.5813 85.176 94.8672V94.8672ZM95.3206 73.8459H93.3794C90.2476 73.8459 87.7 76.3935 87.7 79.5253V94.9042C87.7 95.6041 88.2668 96.1709 88.9667 96.1709H95.3206C98.4524 96.1709 101 93.6233 101 90.4915V79.5253C101 76.3935 98.4524 73.8459 95.3206 73.8459ZM49.4039 73.8459H47.4627C44.3309 73.8459 41.7833 76.3935 41.7833 79.5253V90.4915C41.7833 93.6233 44.3309 96.1709 47.4627 96.1709H53.8167C54.5165 96.1709 55.0833 95.6041 55.0833 94.9042V79.5253C55.0833 76.3935 52.5357 73.8459 49.4039 73.8459ZM68.8583 58.8042H53.9497C50.2035 58.8042 47.1667 61.8411 47.1667 65.5872V70.0459C47.1667 70.7453 47.733 71.3122 48.4324 71.3126C48.6909 71.3126 49.0092 71.3127 49.4026 71.3127C53.9389 71.3127 57.6167 74.9899 57.6167 79.5261V80.4961C57.6167 81.1956 58.1838 81.7627 58.8833 81.7627H68.8583C69.5578 81.7627 70.125 81.1956 70.125 80.4961V60.0711C70.125 59.3714 69.5578 58.8042 68.8583 58.8042V58.8042ZM88.517 58.8042H73.925C73.2255 58.8042 72.6583 59.3714 72.6583 60.0709V80.4959C72.6583 81.1954 73.2255 81.7626 73.925 81.7626H83.9C84.5995 81.7626 85.1667 81.1954 85.1667 80.4959V79.5253C85.1667 75.0008 88.8468 71.3126 93.3794 71.3126H94.0333C94.7328 71.3126 95.3 70.7454 95.3 70.0459V65.5872C95.3 61.8411 92.2632 58.8042 88.517 58.8042V58.8042Z" fill="#F2EDDE"/>
</g>
<defs>
<clipPath id="clip0_104_583">
<rect width="76" height="76" fill="white" transform="translate(25 25)"/>
</clipPath>
</defs>
</svg>
