<svg width="126" height="126" viewBox="0 0 126 126" fill="none" xmlns="http://www.w3.org/2000/svg">
<rect width="126" height="126" fill="#8B6149"/>
<path d="M31.4082 34.0289L34.0255 31.4117L59.0682 56.4544L56.451 59.0717L31.4082 34.0289Z" fill="#F2EDDE"/>
<path d="M93.8847 40.2461L93.8138 40.0393L86.0917 47.7617L79.2203 46.7799L78.2385 39.9085L85.9609 32.1863L85.7541 32.1155C83.4728 31.335 81.021 31.1987 78.6636 31.7221C76.2388 32.2603 74.0249 33.477 72.2616 35.2404C69.2073 38.2947 67.8724 42.67 68.6499 46.8794L59.0732 56.4562L64.3087 61.6916L70.8529 55.1474L76.0882 60.3827L79.1207 57.3502C79.9094 57.496 80.7036 57.5675 81.4942 57.5675C84.9229 57.5673 88.2778 56.2208 90.7597 53.7389C92.5232 51.9754 93.7398 49.7616 94.2781 47.3367C94.8014 44.9792 94.6653 42.5274 93.8847 40.2461V40.2461Z" fill="#F2EDDE"/>
<path d="M39.3541 76.1753C37.3777 76.457 35.541 77.3706 34.1204 78.7913C32.3724 80.5393 31.4097 82.8633 31.4097 85.3354C31.4097 87.8074 32.3723 90.1315 34.1204 91.8796C35.8684 93.6276 38.1925 94.5904 40.6645 94.5904C43.1366 94.5904 45.4608 93.6276 47.2087 91.8796C48.6295 90.4588 49.5431 88.6222 49.8248 86.6459L60.382 76.0886L55.1467 70.8533L61.6909 64.3092L56.4556 59.0739L39.3541 76.1753ZM40.6645 87.953L38.0469 85.3354L40.6645 82.7177L43.2822 85.3354L40.6645 87.953Z" fill="#F2EDDE"/>
<path d="M69.5442 72.162L65.6177 76.0885L81.9507 92.4215C83.3964 93.8673 85.2912 94.5901 87.186 94.5901C88.4885 94.5901 89.7909 94.2486 90.9475 93.5654L69.5442 72.162Z" fill="#F2EDDE"/>
<path d="M76.0882 65.6178L72.1616 69.5443L93.5651 90.9478C95.2419 88.1085 94.8606 84.3903 92.4212 81.9508L76.0882 65.6178Z" fill="#F2EDDE"/>
<path d="M60.3755 70.8529L70.8446 60.3838L73.4619 63.0011L62.9928 73.4702L60.3755 70.8529Z" fill="#F2EDDE"/>
</svg>
