<svg width="24" height="29" viewBox="0 0 24 29" fill="none" xmlns="http://www.w3.org/2000/svg">
<path d="M12 0.548828C8.9129 0.552224 5.95323 1.77998 3.77023 3.96276C1.58723 6.14554 0.359174 9.10509 0.355469 12.1922C0.355469 15.1905 2.67714 19.8828 7.2563 26.1385C7.80144 26.8853 8.5152 27.4929 9.3395 27.9117C10.1638 28.3306 11.0754 28.5489 12 28.5489C12.9246 28.5489 13.8361 28.3306 14.6604 27.9117C15.4847 27.4929 16.1985 26.8853 16.7436 26.1385C21.3228 19.8828 23.6445 15.1905 23.6445 12.1922C23.6408 9.10509 22.4127 6.14554 20.2297 3.96276C18.0467 1.77998 15.087 0.552224 12 0.548828ZM12 16.8332C11.077 16.8332 10.1747 16.5595 9.40731 16.0467C8.63988 15.5339 8.04174 14.8051 7.68853 13.9524C7.33532 13.0996 7.24291 12.1613 7.42297 11.2561C7.60303 10.3508 8.04749 9.51931 8.70014 8.86666C9.35278 8.21402 10.1843 7.76956 11.0895 7.5895C11.9948 7.40943 12.9331 7.50185 13.7858 7.85506C14.6385 8.20827 15.3674 8.80641 15.8802 9.57383C16.3929 10.3413 16.6666 11.2435 16.6666 12.1665C16.6666 13.4042 16.175 14.5912 15.2998 15.4663C14.4246 16.3415 13.2376 16.8332 12 16.8332Z" fill="#8B6149"/>
</svg>
