<svg width="24" height="24" viewBox="0 0 24 24" fill="none" xmlns="http://www.w3.org/2000/svg">
<g clip-path="url(#clip0_125_350)">
<path d="M22.9998 11C22.7346 11 22.4802 10.8946 22.2927 10.7071C22.1052 10.5196 21.9998 10.2652 21.9998 10C21.9977 7.87892 21.1542 5.84531 19.6543 4.34548C18.1545 2.84565 16.1209 2.00212 13.9998 2C13.7346 2 13.4802 1.89464 13.2927 1.7071C13.1052 1.51957 12.9998 1.26521 12.9998 0.999997C12.9998 0.734781 13.1052 0.480427 13.2927 0.292891C13.4802 0.105354 13.7346 -2.72449e-06 13.9998 -2.72449e-06C16.6511 0.00290887 19.1929 1.05741 21.0677 2.93215C22.9424 4.80688 23.9969 7.34873 23.9998 10C23.9998 10.2652 23.8945 10.5196 23.7069 10.7071C23.5194 10.8946 23.265 11 22.9998 11ZM19.9998 10C19.9998 8.4087 19.3677 6.88258 18.2424 5.75736C17.1172 4.63214 15.5911 4 13.9998 4C13.7346 4 13.4802 4.10535 13.2927 4.29289C13.1052 4.48043 12.9998 4.73478 12.9998 5C12.9998 5.26521 13.1052 5.51957 13.2927 5.7071C13.4802 5.89464 13.7346 6 13.9998 6C15.0607 6 16.0781 6.42143 16.8282 7.17157C17.5784 7.92172 17.9998 8.93913 17.9998 10C17.9998 10.2652 18.1052 10.5196 18.2927 10.7071C18.4802 10.8946 18.7346 11 18.9998 11C19.265 11 19.5194 10.8946 19.7069 10.7071C19.8945 10.5196 19.9998 10.2652 19.9998 10ZM22.1828 22.164L23.0928 21.115C23.672 20.5339 23.9973 19.7469 23.9973 18.9265C23.9973 18.1061 23.672 17.3191 23.0928 16.738C23.0618 16.707 20.6558 14.856 20.6558 14.856C20.0784 14.3063 19.3113 14.0003 18.5141 14.0014C17.7169 14.0025 16.9507 14.3107 16.3748 14.862L14.4688 16.468C12.913 15.8241 11.4997 14.8792 10.3101 13.6875C9.12049 12.4959 8.17802 11.0809 7.53681 9.524L9.13681 7.624C9.68852 7.04817 9.9971 6.28187 9.99841 5.4844C9.99971 4.68693 9.69364 3.91963 9.14381 3.342C9.14381 3.342 7.29081 0.938997 7.25981 0.907997C6.68926 0.333746 5.91569 0.00701929 5.10623 -0.00158794C4.29678 -0.0101952 3.51644 0.300008 2.93381 0.861997L1.78381 1.862C-5.01019 9.744 9.61981 24.261 17.7618 24C18.584 24.0048 19.3988 23.8448 20.1581 23.5294C20.9174 23.2141 21.6059 22.7498 22.1828 22.164V22.164Z" fill="#8B6149"/>
</g>
<defs>
<clipPath id="clip0_125_350">
<rect width="24" height="24" fill="white"/>
</clipPath>
</defs>
</svg>
